<?xml version="1.0" standalone="no"?>
<!DOCTYPE svg PUBLIC "-//W3C//DTD SVG 20010904//EN"
 "http://www.w3.org/TR/2001/REC-SVG-20010904/DTD/svg10.dtd">
<svg version="1.0" xmlns="http://www.w3.org/2000/svg"
 width="146.000000pt" height="214.000000pt" viewBox="0 0 146.000000 214.000000"
 preserveAspectRatio="xMidYMid meet">

<g transform="translate(0.000000,214.000000) scale(0.100000,-0.100000)"
fill="#000000" stroke="none">
<path d="M317 1838 c-27 -21 -36 -60 -22 -94 31 -75 145 -49 145 32 0 58 -77
96 -123 62z"/>
<path d="M1057 1838 c-27 -21 -36 -60 -22 -94 31 -75 145 -49 145 32 0 58 -77
96 -123 62z"/>
<path d="M317 1128 c-27 -21 -36 -60 -22 -94 31 -75 145 -49 145 32 0 58 -77
96 -123 62z"/>
<path d="M1057 1128 c-27 -21 -36 -60 -22 -94 31 -75 145 -49 145 32 0 58 -77
96 -123 62z"/>
<path d="M317 418 c-27 -21 -36 -60 -22 -94 31 -75 145 -49 145 32 0 58 -77
96 -123 62z"/>
<path d="M1057 418 c-27 -21 -36 -60 -22 -94 31 -75 145 -49 145 32 0 58 -77
96 -123 62z"/>
</g>
</svg>
